<svg xmlns="http://www.w3.org/2000/svg" fill="none" viewBox="0 0 24 24" height="48" width="48"><path fill="#c7c9c7" fill-rule="evenodd" d="M20.5858 7.99991L15.7929 12.7928L17.2071 14.207L22.7071 8.70701L23.4142 7.99991L22.7071 7.2928L16.7071 1.2928L16 0.585693L15.2929 1.2928L9.79292 6.7928L11.2071 8.20701L16 3.41412L20.5858 7.99991ZM7.29292 15.2928L15.2929 7.2928L16.7071 8.70701L8.70714 16.707L7.29292 15.2928ZM8.20714 11.207L3.41424 15.9999L8.00003 20.5857L12.7929 15.7928L14.2071 17.207L8.70714 22.707L8.00003 23.4141L7.29292 22.707L1.29292 16.707L0.585815 15.9999L1.29292 15.2928L6.79292 9.7928L8.20714 11.207Z" clip-rule="evenodd"></path></svg>