<svg xmlns="http://www.w3.org/2000/svg" fill="none" viewBox="0 0 24 24" height="48" width="48"><path fill="#555555" fill-rule="evenodd" d="M21 12C21 8.68629 18.3137 6 15 6V4C19.4183 4 23 7.58172 23 12C23 16.4183 19.4183 20 15 20V18C18.3137 18 21 15.3137 21 12Z" clip-rule="evenodd"></path><path fill="#555555" fill-rule="evenodd" d="M17 12C17 10.8954 16.1046 10 15 10V8C17.2091 8 19 9.79086 19 12C19 14.2091 17.2091 16 15 16V14C16.1046 14 17 13.1046 17 12Z" clip-rule="evenodd"></path><path fill="#c7c9c7" d="M13.0005 22.9433V1.05688L4.68 7.00007L1 7.00007V17.0001L4.68001 17.0001L13.0005 22.9433Z"></path></svg>