<svg xmlns="http://www.w3.org/2000/svg" fill="none" viewBox="0 0 24 24" height="48" width="48"><path fill="#555555" fill-rule="evenodd" d="M3 15C3 10.0294 7.02944 6 12 6C16.9706 6 21 10.0294 21 15C21 16.0533 20.8195 17.0627 20.4882 18H3.51183C3.18054 17.0627 3 16.0533 3 15Z" clip-rule="evenodd"></path><path fill="#c7c9c7" fill-rule="evenodd" d="M12 4C5.92487 4 1 8.92487 1 15C1 16.5626 1.32642 18.0516 1.91573 19.4004L2.17772 20H2.83209H21.1679H21.8223L22.0843 19.4004C22.6736 18.0516 23 16.5626 23 15C23 8.92487 18.0751 4 12 4ZM3 15C3 10.0294 7.02944 6 12 6C16.9706 6 21 10.0294 21 15C21 16.0533 20.8195 17.0627 20.4882 18H13.8685L17.8321 12.0547L16.1679 10.9453L11.4648 18H3.51183C3.18054 17.0627 3 16.0533 3 15Z" clip-rule="evenodd"></path></svg>