<svg xmlns="http://www.w3.org/2000/svg" fill="none" viewBox="0 0 24 24" height="48" width="48"><path fill="#555555" fill-rule="evenodd" d="M11.0001 1C5.47723 1 1.00007 5.47715 1.00007 11C1.00007 13.1506 1.67999 15.1446 2.83588 16.7758L0.195801 20.9997L11 21C16.5229 21 21.0001 16.5228 21.0001 11C21.0001 5.47715 16.5229 1 11.0001 1Z" clip-rule="evenodd"></path><path fill="#c7c9c7" d="M15.5 8C11.3579 8 8 11.3579 8 15.5C8 19.6421 11.3579 23 15.5 23L23.8043 22.9998L21.7286 19.679C22.5312 18.4847 23 17.0461 23 15.5C23 11.3579 19.6421 8 15.5 8Z"></path></svg>