<svg xmlns="http://www.w3.org/2000/svg" fill="none" viewBox="0 0 24 24" height="48" width="48"><path fill="#555555" fill-rule="evenodd" d="M3.25012 11C3.25012 6.71979 6.71991 3.25 11.0001 3.25C15.2803 3.25 18.7501 6.71979 18.7501 11C18.7501 15.2802 15.2803 18.75 11.0001 18.75C6.71991 18.75 3.25012 15.2802 3.25012 11ZM11.0001 0.75C5.3392 0.75 0.750122 5.33908 0.750122 11C0.750122 16.6609 5.3392 21.25 11.0001 21.25C13.3801 21.25 15.5706 20.4389 17.3102 19.078L21.1161 22.8839L22.8839 21.1161L19.078 17.3103C20.439 15.5705 21.2501 13.38 21.2501 11C21.2501 5.33908 16.661 0.75 11.0001 0.75Z" clip-rule="evenodd"></path><path fill="#c7c9c7" fill-rule="evenodd" d="M3.25012 11C3.25012 6.71979 6.71991 3.25 11.0001 3.25C15.2803 3.25 18.7501 6.71979 18.7501 11C18.7501 15.2802 15.2803 18.75 11.0001 18.75C6.71991 18.75 3.25012 15.2802 3.25012 11Z" clip-rule="evenodd"></path></svg>